<?xml version="1.0" encoding="UTF-8" standalone="no"?>
<!-- Created with Inkscape (http://www.inkscape.org/) -->

<svg
   xmlns:dc="http://purl.org/dc/elements/1.1/"
   xmlns:cc="http://creativecommons.org/ns#"
   xmlns:rdf="http://www.w3.org/1999/02/22-rdf-syntax-ns#"
   xmlns:svg="http://www.w3.org/2000/svg"
   xmlns="http://www.w3.org/2000/svg"
   xmlns:sodipodi="http://sodipodi.sourceforge.net/DTD/sodipodi-0.dtd"
   xmlns:inkscape="http://www.inkscape.org/namespaces/inkscape"
   width="348.802"
   height="176.90068"
   viewBox="0 0 92.287195 46.80497"
   version="1.1"
   id="svg8"
   inkscape:version="0.92.3 (2405546, 2018-03-11)"
   sodipodi:docname="header-right.svg">
  <defs
     id="defs2">
    <clipPath
       id="clipPath831"
       clipPathUnits="userSpaceOnUse">
      <path
         inkscape:connector-curvature="0"
         id="path829"
         d="M 0,189.92 H 745.51 V 0 H 0 Z" />
    </clipPath>
    <clipPath
       id="clipPath904"
       clipPathUnits="userSpaceOnUse">
      <path
         inkscape:connector-curvature="0"
         id="path902"
         d="M 0,189.92 H 745.51 V 0 H 0 Z" />
    </clipPath>
  </defs>
  <sodipodi:namedview
     id="base"
     pagecolor="#ffffff"
     bordercolor="#666666"
     borderopacity="1.0"
     inkscape:pageopacity="0.0"
     inkscape:pageshadow="2"
     inkscape:zoom="1.4"
     inkscape:cx="178.50381"
     inkscape:cy="-46.973462"
     inkscape:document-units="px"
     inkscape:current-layer="text953"
     showgrid="false"
     showguides="true"
     inkscape:guide-bbox="true"
     fit-margin-top="0"
     fit-margin-left="0"
     fit-margin-right="0"
     fit-margin-bottom="0"
     inkscape:window-width="1920"
     inkscape:window-height="1002"
     inkscape:window-x="0"
     inkscape:window-y="0"
     inkscape:window-maximized="1"
     units="px" />
  <metadata
     id="metadata5">
    <rdf:RDF>
      <cc:Work
         rdf:about="">
        <dc:format>image/svg+xml</dc:format>
        <dc:type
           rdf:resource="http://purl.org/dc/dcmitype/StillImage" />
        <dc:title></dc:title>
      </cc:Work>
    </rdf:RDF>
  </metadata>
  <g
     inkscape:label="Ebene 1"
     inkscape:groupmode="layer"
     id="layer1"
     transform="translate(92.556166,-13.394243)">
    <g
       aria-label="BEKANNTMACHUNGEN
DER STUDIERENDENSCHAFT"
       style="font-style:normal;font-variant:normal;font-weight:normal;font-stretch:normal;font-size:7.05555534px;line-height:100%;font-family:Roboto;-inkscape-font-specification:Roboto;text-align:end;letter-spacing:0px;word-spacing:0px;writing-mode:lr-tb;text-anchor:end;fill:#4d4d4d;fill-opacity:1;stroke:none;stroke-width:0.26458332px;stroke-linecap:butt;stroke-linejoin:miter;stroke-opacity:1"
       id="text953">
      <path
         d="M -75.67522,48.897499 V 43.88144 h 1.756998 q 0.91295,0 1.384929,0.3514 0.471978,0.347955 0.471978,1.023193 0,0.368625 -0.189481,0.651123 -0.18948,0.279053 -0.527099,0.409967 0.38585,0.09646 0.606337,0.389295 0.223931,0.292834 0.223931,0.71658 0,0.72347 -0.461643,1.095541 -0.461643,0.37207 -1.316026,0.37896 z m 1.033528,-2.18419 v 1.353922 h 0.88539 q 0.36518,0 0.56844,-0.172255 0.206706,-0.1757 0.206706,-0.482313 0,-0.689019 -0.713135,-0.699354 z m 0,-0.730361 h 0.764811 q 0.782037,-0.01378 0.782037,-0.623562 0,-0.341064 -0.199816,-0.489203 -0.19637,-0.151585 -0.623562,-0.151585 h -0.72347 z"
         style="font-style:normal;font-variant:normal;font-weight:bold;font-stretch:normal;font-family:Roboto;-inkscape-font-specification:'Roboto Bold';text-align:end;text-anchor:end;fill:#4d4d4d;stroke-width:0.26458332px"
         id="path1413" />
      <path
         d="m -68.151132,46.723644 h -1.984375 v 1.343587 h 2.328884 v 0.830268 h -3.362413 V 43.88144 h 3.355523 v 0.837158 h -2.321994 v 1.195448 h 1.984375 z"
         style="font-style:normal;font-variant:normal;font-weight:bold;font-stretch:normal;font-family:Roboto;-inkscape-font-specification:'Roboto Bold';text-align:end;text-anchor:end;fill:#4d4d4d;stroke-width:0.26458332px"
         id="path1415" />
      <path
         d="m -65.629322,46.885563 -0.537435,0.578776 v 1.43316 h -1.033529 V 43.88144 h 1.033529 v 2.273763 l 0.454752,-0.623562 1.278131,-1.650201 h 1.27124 l -1.781114,2.228977 1.83279,2.787082 h -1.229899 z"
         style="font-style:normal;font-variant:normal;font-weight:bold;font-stretch:normal;font-family:Roboto;-inkscape-font-specification:'Roboto Bold';text-align:end;text-anchor:end;fill:#4d4d4d;stroke-width:0.26458332px"
         id="path1417" />
      <path
         d="m -59.889794,47.86397 h -1.81212 l -0.34451,1.033529 h -1.098985 l 1.867241,-5.016059 h 0.957737 l 1.877577,5.016059 h -1.098985 z m -1.533068,-0.837158 h 1.254015 l -0.630452,-1.877577 z"
         style="font-style:normal;font-variant:normal;font-weight:bold;font-stretch:normal;font-family:Roboto;-inkscape-font-specification:'Roboto Bold';text-align:end;text-anchor:end;fill:#4d4d4d;stroke-width:0.26458332px"
         id="path1419" />
      <path
         d="m -53.888437,48.897499 h -1.033529 l -2.011935,-3.300401 v 3.300401 H -57.96743 V 43.88144 h 1.033529 l 2.01538,3.307292 V 43.88144 h 1.030084 z"
         style="font-style:normal;font-variant:normal;font-weight:bold;font-stretch:normal;font-family:Roboto;-inkscape-font-specification:'Roboto Bold';text-align:end;text-anchor:end;fill:#4d4d4d;stroke-width:0.26458332px"
         id="path1421" />
      <path
         d="m -48.899938,48.897499 h -1.033529 l -2.011936,-3.300401 v 3.300401 h -1.033528 V 43.88144 h 1.033528 l 2.015381,3.307292 V 43.88144 h 1.030084 z"
         style="font-style:normal;font-variant:normal;font-weight:bold;font-stretch:normal;font-family:Roboto;-inkscape-font-specification:'Roboto Bold';text-align:end;text-anchor:end;fill:#4d4d4d;stroke-width:0.26458332px"
         id="path1423" />
      <path
         d="m -44.21461,44.718598 h -1.536513 v 4.178901 h -1.033528 v -4.178901 h -1.515842 V 43.88144 h 4.085883 z"
         style="font-style:normal;font-variant:normal;font-weight:bold;font-stretch:normal;font-family:Roboto;-inkscape-font-specification:'Roboto Bold';text-align:end;text-anchor:end;fill:#4d4d4d;stroke-width:0.26458332px"
         id="path1425" />
      <path
         d="m -42.271574,43.88144 1.288466,3.638021 1.281575,-3.638021 h 1.357368 v 5.016059 h -1.036974 v -1.371148 l 0.103353,-2.36678 -1.353922,3.737928 h -0.70969 l -1.350477,-3.734483 0.103352,2.363335 v 1.371148 h -1.033528 V 43.88144 Z"
         style="font-style:normal;font-variant:normal;font-weight:bold;font-stretch:normal;font-family:Roboto;-inkscape-font-specification:'Roboto Bold';text-align:end;text-anchor:end;fill:#4d4d4d;stroke-width:0.26458332px"
         id="path1427" />
      <path
         d="m -34.602793,47.86397 h -1.812121 l -0.344509,1.033529 h -1.098986 l 1.867242,-5.016059 h 0.957737 l 1.877577,5.016059 h -1.098986 z m -1.533068,-0.837158 h 1.254015 l -0.630453,-1.877577 z"
         style="font-style:normal;font-variant:normal;font-weight:bold;font-stretch:normal;font-family:Roboto;-inkscape-font-specification:'Roboto Bold';text-align:end;text-anchor:end;fill:#4d4d4d;stroke-width:0.26458332px"
         id="path1429" />
      <path
         d="m -28.742687,47.226628 q -0.05857,0.809597 -0.599447,1.274685 -0.537435,0.465088 -1.419379,0.465088 -0.964627,0 -1.519287,-0.647678 -0.551216,-0.651123 -0.551216,-1.784559 V 46.22755 q 0,-0.72347 0.254938,-1.274685 0.254937,-0.551215 0.726915,-0.844048 0.475423,-0.296279 1.10243,-0.296279 0.868164,0 1.398709,0.465088 0.530545,0.465088 0.613227,1.305691 h -1.033529 q -0.0379,-0.485758 -0.272162,-0.702799 -0.230822,-0.220486 -0.706245,-0.220486 -0.516764,0 -0.775146,0.37207 -0.254937,0.368625 -0.261828,1.147217 v 0.37896 q 0,0.813043 0.244602,1.188558 0.248047,0.375516 0.778592,0.375516 0.478868,0 0.713135,-0.217041 0.237711,-0.220486 0.272162,-0.678684 z"
         style="font-style:normal;font-variant:normal;font-weight:bold;font-stretch:normal;font-family:Roboto;-inkscape-font-specification:'Roboto Bold';text-align:end;text-anchor:end;fill:#4d4d4d;stroke-width:0.26458332px"
         id="path1431" />
      <path
         d="m -23.981565,48.897499 h -1.033529 V 46.74776 h -2.01538 v 2.149739 h -1.033529 V 43.88144 h 1.033529 v 2.032606 h 2.01538 V 43.88144 h 1.033529 z"
         style="font-style:normal;font-variant:normal;font-weight:bold;font-stretch:normal;font-family:Roboto;-inkscape-font-specification:'Roboto Bold';text-align:end;text-anchor:end;fill:#4d4d4d;stroke-width:0.26458332px"
         id="path1433" />
      <path
         d="m -19.279009,43.88144 v 3.303847 q 0,0.823377 -0.516764,1.302246 -0.51332,0.478868 -1.405599,0.478868 -0.8785,0 -1.395264,-0.465088 -0.516764,-0.465088 -0.5271,-1.27813 V 43.88144 h 1.033529 v 3.310737 q 0,0.492649 0.234267,0.720025 0.237711,0.223931 0.654568,0.223931 0.871609,0 0.885389,-0.916395 V 43.88144 Z"
         style="font-style:normal;font-variant:normal;font-weight:bold;font-stretch:normal;font-family:Roboto;-inkscape-font-specification:'Roboto Bold';text-align:end;text-anchor:end;fill:#4d4d4d;stroke-width:0.26458332px"
         id="path1435" />
      <path
         d="m -14.352522,48.897499 h -1.033528 l -2.011936,-3.300401 v 3.300401 h -1.033529 V 43.88144 h 1.033529 l 2.015381,3.307292 V 43.88144 h 1.030083 z"
         style="font-style:normal;font-variant:normal;font-weight:bold;font-stretch:normal;font-family:Roboto;-inkscape-font-specification:'Roboto Bold';text-align:end;text-anchor:end;fill:#4d4d4d;stroke-width:0.26458332px"
         id="path1437" />
      <path
         d="m -9.4742661,48.263602 q -0.2790528,0.334174 -0.7889269,0.520209 -0.509874,0.18259 -1.129991,0.18259 -0.651123,0 -1.143772,-0.282498 -0.489203,-0.285943 -0.757921,-0.826823 -0.265272,-0.54088 -0.272162,-1.27124 v -0.341064 q 0,-0.751031 0.251492,-1.298801 0.254937,-0.551216 0.73036,-0.840604 0.478868,-0.292833 1.119656,-0.292833 0.892279,0 1.395263,0.427192 0.5029843,0.423747 0.5960019,1.236789 h -1.0059679 q -0.0689,-0.430637 -0.306613,-0.630452 -0.234267,-0.199816 -0.647678,-0.199816 -0.5271,0 -0.802708,0.396186 -0.275607,0.396186 -0.279052,1.178223 v 0.320394 q 0,0.788927 0.299723,1.192003 0.299723,0.403076 0.878499,0.403076 0.582221,0 0.830268,-0.248047 v -0.864719 h -0.940511 v -0.761366 h 1.9740399 z"
         style="font-style:normal;font-variant:normal;font-weight:bold;font-stretch:normal;font-family:Roboto;-inkscape-font-specification:'Roboto Bold';text-align:end;text-anchor:end;fill:#4d4d4d;stroke-width:0.26458332px"
         id="path1439" />
      <path
         d="m -5.6157596,46.723644 h -1.9843749 v 1.343587 H -5.27125 v 0.830268 H -8.6336631 V 43.88144 h 3.3555229 v 0.837158 h -2.3219943 v 1.195448 h 1.9843749 z"
         style="font-style:normal;font-variant:normal;font-weight:bold;font-stretch:normal;font-family:Roboto;-inkscape-font-specification:'Roboto Bold';text-align:end;text-anchor:end;fill:#4d4d4d;stroke-width:0.26458332px"
         id="path1441" />
      <path
         d="m -0.5859202,48.897499 h -1.0335286 l -2.0119357,-3.300401 v 3.300401 H -4.6649131 V 43.88144 h 1.0335286 l 2.0153808,3.307292 V 43.88144 h 1.0300835 z"
         style="font-style:normal;font-variant:normal;font-weight:bold;font-stretch:normal;font-family:Roboto;-inkscape-font-specification:'Roboto Bold';text-align:end;text-anchor:end;fill:#4d4d4d;stroke-width:0.26458332px"
         id="path1443" />
      <path
         d="m -92.556188,55.953054 v -5.016058 h 1.543403 q 0.661458,0 1.181668,0.299723 0.523654,0.296278 0.816487,0.847493 0.292833,0.54777 0.292833,1.247125 v 0.230821 q 0,0.699355 -0.289388,1.24368 -0.285943,0.544325 -0.809597,0.844048 -0.523655,0.299723 -1.181668,0.303168 z m 1.033529,-4.1789 v 3.348632 h 0.499539 q 0.606336,0 0.92673,-0.396186 0.320394,-0.396185 0.327284,-1.133436 v -0.265272 q 0,-0.764811 -0.316948,-1.157552 -0.316949,-0.396186 -0.926731,-0.396186 z"
         style="font-style:normal;font-variant:normal;font-weight:bold;font-stretch:normal;font-family:Roboto;-inkscape-font-specification:'Roboto Bold';text-align:end;text-anchor:end;fill:#4d4d4d;stroke-width:0.26458332px"
         id="path1445" />
      <path
         d="m -84.949417,53.779199 h -1.984375 v 1.343587 h 2.328884 v 0.830268 h -3.362413 v -5.016058 h 3.355523 v 0.837158 h -2.321994 v 1.195448 h 1.984375 z"
         style="font-style:normal;font-variant:normal;font-weight:bold;font-stretch:normal;font-family:Roboto;-inkscape-font-specification:'Roboto Bold';text-align:end;text-anchor:end;fill:#4d4d4d;stroke-width:0.26458332px"
         id="path1447" />
      <path
         d="m -82.141664,54.116819 h -0.823378 v 1.836235 h -1.033529 v -5.016058 h 1.863797 q 0.888835,0 1.371148,0.396186 0.482313,0.396185 0.482313,1.119656 0,0.513319 -0.223931,0.857828 -0.220486,0.341065 -0.671794,0.544325 l 1.085206,2.049832 v 0.04823 h -1.109321 z m -0.823378,-0.837159 h 0.833713 q 0.389296,0 0.602892,-0.19637 0.213596,-0.199816 0.213596,-0.54777 0,-0.354845 -0.203261,-0.558106 -0.199815,-0.20326 -0.616672,-0.20326 h -0.830268 z"
         style="font-style:normal;font-variant:normal;font-weight:bold;font-stretch:normal;font-family:Roboto;-inkscape-font-specification:'Roboto Bold';text-align:end;text-anchor:end;fill:#4d4d4d;stroke-width:0.26458332px"
         id="path1449" />
      <path
         d="m -75.127451,54.637028 q 0,-0.292833 -0.206705,-0.447862 -0.206706,-0.158475 -0.744141,-0.33073 -0.537435,-0.175699 -0.850939,-0.344509 -0.854383,-0.461643 -0.854383,-1.24368 0,-0.406521 0.227376,-0.72347 0.230821,-0.320393 0.658013,-0.499538 0.430637,-0.179145 0.964627,-0.179145 0.537435,0 0.957737,0.19637 0.420301,0.192925 0.651123,0.54777 0.234266,0.354845 0.234266,0.806153 h -1.033529 q 0,-0.34451 -0.217041,-0.53399 -0.217041,-0.192926 -0.609781,-0.192926 -0.378961,0 -0.589112,0.16192 -0.210151,0.158474 -0.210151,0.420302 0,0.244601 0.244602,0.409966 0.248047,0.165364 0.726915,0.310058 0.881945,0.265273 1.285021,0.658014 0.403076,0.392741 0.403076,0.978407 0,0.651123 -0.492649,1.023193 -0.492648,0.368625 -1.326361,0.368625 -0.578776,0 -1.0542,-0.21015 -0.475423,-0.213596 -0.726915,-0.582222 -0.248047,-0.368625 -0.248047,-0.854383 h 1.036974 q 0,0.830268 0.992188,0.830268 0.368625,0 0.575331,-0.148139 0.206705,-0.151585 0.206705,-0.420302 z"
         style="font-style:normal;font-variant:normal;font-weight:bold;font-stretch:normal;font-family:Roboto;-inkscape-font-specification:'Roboto Bold';text-align:end;text-anchor:end;fill:#4d4d4d;stroke-width:0.26458332px"
         id="path1451" />
      <path
         d="m -69.611853,51.774154 h -1.536512 v 4.1789 h -1.033529 v -4.1789 h -1.515842 v -0.837158 h 4.085883 z"
         style="font-style:normal;font-variant:normal;font-weight:bold;font-stretch:normal;font-family:Roboto;-inkscape-font-specification:'Roboto Bold';text-align:end;text-anchor:end;fill:#4d4d4d;stroke-width:0.26458332px"
         id="path1453" />
      <path
         d="m -65.222801,50.936996 v 3.303846 q 0,0.823378 -0.516764,1.302246 -0.513319,0.478868 -1.405599,0.478868 -0.878499,0 -1.395264,-0.465088 -0.516764,-0.465087 -0.527099,-1.27813 v -3.341742 h 1.033528 v 3.310736 q 0,0.492649 0.234267,0.720025 0.237711,0.223931 0.654568,0.223931 0.871609,0 0.88539,-0.916395 v -3.338297 z"
         style="font-style:normal;font-variant:normal;font-weight:bold;font-stretch:normal;font-family:Roboto;-inkscape-font-specification:'Roboto Bold';text-align:end;text-anchor:end;fill:#4d4d4d;stroke-width:0.26458332px"
         id="path1455" />
      <path
         d="m -64.375306,55.953054 v -5.016058 h 1.543402 q 0.661459,0 1.181668,0.299723 0.523655,0.296278 0.816488,0.847493 0.292833,0.54777 0.292833,1.247125 v 0.230821 q 0,0.699355 -0.289388,1.24368 -0.285943,0.544325 -0.809598,0.844048 -0.523654,0.299723 -1.181667,0.303168 z m 1.033528,-4.1789 v 3.348632 h 0.499539 q 0.606337,0 0.926731,-0.396186 0.320394,-0.396185 0.327284,-1.133436 v -0.265272 q 0,-0.764811 -0.316949,-1.157552 -0.316949,-0.396186 -0.926731,-0.396186 z"
         style="font-style:normal;font-variant:normal;font-weight:bold;font-stretch:normal;font-family:Roboto;-inkscape-font-specification:'Roboto Bold';text-align:end;text-anchor:end;fill:#4d4d4d;stroke-width:0.26458332px"
         id="path1457" />
      <path
         d="m -58.687454,55.953054 h -1.033528 v -5.016058 h 1.033528 z"
         style="font-style:normal;font-variant:normal;font-weight:bold;font-stretch:normal;font-family:Roboto;-inkscape-font-specification:'Roboto Bold';text-align:end;text-anchor:end;fill:#4d4d4d;stroke-width:0.26458332px"
         id="path1459" />
      <path
         d="m -54.71526,53.779199 h -1.984374 v 1.343587 h 2.328884 v 0.830268 h -3.362413 v -5.016058 h 3.355523 v 0.837158 h -2.321994 v 1.195448 h 1.984374 z"
         style="font-style:normal;font-variant:normal;font-weight:bold;font-stretch:normal;font-family:Roboto;-inkscape-font-specification:'Roboto Bold';text-align:end;text-anchor:end;fill:#4d4d4d;stroke-width:0.26458332px"
         id="path1461" />
      <path
         d="m -51.907507,54.116819 h -0.823377 v 1.836235 h -1.033529 v -5.016058 h 1.863797 q 0.888834,0 1.371147,0.396186 0.482314,0.396185 0.482314,1.119656 0,0.513319 -0.223931,0.857828 -0.220486,0.341065 -0.671794,0.544325 l 1.085205,2.049832 v 0.04823 h -1.109321 z m -0.823377,-0.837159 h 0.833713 q 0.389295,0 0.602891,-0.19637 0.213596,-0.199816 0.213596,-0.54777 0,-0.354845 -0.20326,-0.558106 -0.199816,-0.20326 -0.616672,-0.20326 h -0.830268 z"
         style="font-style:normal;font-variant:normal;font-weight:bold;font-stretch:normal;font-family:Roboto;-inkscape-font-specification:'Roboto Bold';text-align:end;text-anchor:end;fill:#4d4d4d;stroke-width:0.26458332px"
         id="path1463" />
      <path
         d="m -46.240326,53.779199 h -1.984375 v 1.343587 h 2.328885 v 0.830268 h -3.362413 v -5.016058 h 3.355522 v 0.837158 h -2.321994 v 1.195448 h 1.984375 z"
         style="font-style:normal;font-variant:normal;font-weight:bold;font-stretch:normal;font-family:Roboto;-inkscape-font-specification:'Roboto Bold';text-align:end;text-anchor:end;fill:#4d4d4d;stroke-width:0.26458332px"
         id="path1465" />
      <path
         d="m -41.210487,55.953054 h -1.033528 l -2.011936,-3.300401 v 3.300401 h -1.033528 v -5.016058 h 1.033528 l 2.015381,3.307291 v -3.307291 h 1.030083 z"
         style="font-style:normal;font-variant:normal;font-weight:bold;font-stretch:normal;font-family:Roboto;-inkscape-font-specification:'Roboto Bold';text-align:end;text-anchor:end;fill:#4d4d4d;stroke-width:0.26458332px"
         id="path1467" />
      <path
         d="m -40.300981,55.953054 v -5.016058 h 1.543403 q 0.661458,0 1.181668,0.299723 0.523654,0.296278 0.816487,0.847493 0.292833,0.54777 0.292833,1.247125 v 0.230821 q 0,0.699355 -0.289388,1.24368 -0.285943,0.544325 -0.809597,0.844048 -0.523655,0.299723 -1.181668,0.303168 z m 1.033529,-4.1789 v 3.348632 h 0.499539 q 0.606336,0 0.92673,-0.396186 0.320394,-0.396185 0.327284,-1.133436 v -0.265272 q 0,-0.764811 -0.316948,-1.157552 -0.316949,-0.396186 -0.926731,-0.396186 z"
         style="font-style:normal;font-variant:normal;font-weight:bold;font-stretch:normal;font-family:Roboto;-inkscape-font-specification:'Roboto Bold';text-align:end;text-anchor:end;fill:#4d4d4d;stroke-width:0.26458332px"
         id="path1469" />
      <path
         d="m -32.69421,53.779199 h -1.984375 v 1.343587 h 2.328885 v 0.830268 h -3.362414 v -5.016058 h 3.355523 v 0.837158 h -2.321994 v 1.195448 h 1.984375 z"
         style="font-style:normal;font-variant:normal;font-weight:bold;font-stretch:normal;font-family:Roboto;-inkscape-font-specification:'Roboto Bold';text-align:end;text-anchor:end;fill:#4d4d4d;stroke-width:0.26458332px"
         id="path1471" />
      <path
         d="m -27.664371,55.953054 h -1.033528 l -2.011936,-3.300401 v 3.300401 h -1.033529 v -5.016058 h 1.033529 l 2.015381,3.307291 v -3.307291 h 1.030083 z"
         style="font-style:normal;font-variant:normal;font-weight:bold;font-stretch:normal;font-family:Roboto;-inkscape-font-specification:'Roboto Bold';text-align:end;text-anchor:end;fill:#4d4d4d;stroke-width:0.26458332px"
         id="path1473" />
      <path
         d="m -24.153818,54.637028 q 0,-0.292833 -0.206706,-0.447862 -0.206705,-0.158475 -0.74414,-0.33073 -0.537435,-0.175699 -0.850939,-0.344509 -0.854383,-0.461643 -0.854383,-1.24368 0,-0.406521 0.227376,-0.72347 0.230821,-0.320393 0.658013,-0.499538 0.430637,-0.179145 0.964627,-0.179145 0.537435,0 0.957736,0.19637 0.420302,0.192925 0.651123,0.54777 0.234267,0.354845 0.234267,0.806153 h -1.033529 q 0,-0.34451 -0.217041,-0.53399 -0.217041,-0.192926 -0.609782,-0.192926 -0.37896,0 -0.589111,0.16192 -0.210151,0.158474 -0.210151,0.420302 0,0.244601 0.244602,0.409966 0.248047,0.165364 0.726915,0.310058 0.881945,0.265273 1.285021,0.658014 0.403076,0.392741 0.403076,0.978407 0,0.651123 -0.492649,1.023193 -0.492648,0.368625 -1.326362,0.368625 -0.578776,0 -1.054199,-0.21015 -0.475423,-0.213596 -0.726915,-0.582222 -0.248047,-0.368625 -0.248047,-0.854383 h 1.036974 q 0,0.830268 0.992187,0.830268 0.368626,0 0.575331,-0.148139 0.206706,-0.151585 0.206706,-0.420302 z"
         style="font-style:normal;font-variant:normal;font-weight:bold;font-stretch:normal;font-family:Roboto;-inkscape-font-specification:'Roboto Bold';text-align:end;text-anchor:end;fill:#4d4d4d;stroke-width:0.26458332px"
         id="path1475" />
      <path
         d="m -18.476301,54.282183 q -0.05857,0.809598 -0.599446,1.274685 -0.537435,0.465088 -1.419379,0.465088 -0.964627,0 -1.519288,-0.647678 -0.551215,-0.651123 -0.551215,-1.784559 v -0.306613 q 0,-0.723471 0.254937,-1.274686 0.254937,-0.551215 0.726915,-0.844048 0.475424,-0.296278 1.102431,-0.296278 0.868164,0 1.398709,0.465088 0.530544,0.465087 0.613227,1.305691 h -1.033529 q -0.0379,-0.485759 -0.272163,-0.7028 -0.230821,-0.220486 -0.706244,-0.220486 -0.516764,0 -0.775147,0.37207 -0.254937,0.368626 -0.261827,1.147217 v 0.378961 q 0,0.813042 0.244602,1.188558 0.248047,0.375515 0.778592,0.375515 0.478868,0 0.713134,-0.217041 0.237712,-0.220486 0.272163,-0.678684 z"
         style="font-style:normal;font-variant:normal;font-weight:bold;font-stretch:normal;font-family:Roboto;-inkscape-font-specification:'Roboto Bold';text-align:end;text-anchor:end;fill:#4d4d4d;stroke-width:0.26458332px"
         id="path1477" />
      <path
         d="m -13.715182,55.953054 h -1.033529 v -2.149739 h -2.01538 v 2.149739 h -1.033529 v -5.016058 h 1.033529 v 2.032606 h 2.01538 v -2.032606 h 1.033529 z"
         style="font-style:normal;font-variant:normal;font-weight:bold;font-stretch:normal;font-family:Roboto;-inkscape-font-specification:'Roboto Bold';text-align:end;text-anchor:end;fill:#4d4d4d;stroke-width:0.26458332px"
         id="path1479" />
      <path
         d="m -9.908348,54.919526 h -1.81212 l -0.34451,1.033528 h -1.098985 l 1.867242,-5.016058 h 0.957736 l 1.877577,5.016058 h -1.0989854 z m -1.533067,-0.837158 h 1.254014 l -0.630452,-1.877577 z"
         style="font-style:normal;font-variant:normal;font-weight:bold;font-stretch:normal;font-family:Roboto;-inkscape-font-specification:'Roboto Bold';text-align:end;text-anchor:end;fill:#4d4d4d;stroke-width:0.26458332px"
         id="path1481" />
      <path
         d="m -4.9680786,53.903223 h -1.9843749 v 2.049831 h -1.0335286 v -5.016058 h 3.2659504 v 0.837158 h -2.2324218 v 1.295356 h 1.9843749 z"
         style="font-style:normal;font-variant:normal;font-weight:bold;font-stretch:normal;font-family:Roboto;-inkscape-font-specification:'Roboto Bold';text-align:end;text-anchor:end;fill:#4d4d4d;stroke-width:0.26458332px"
         id="path1483" />
      <path
         d="M -0.26897259,51.774154 H -1.8054851 v 4.1789 h -1.0335286 v -4.1789 h -1.515842 v -0.837158 h 4.08588311 z"
         style="font-style:normal;font-variant:normal;font-weight:bold;font-stretch:normal;font-family:Roboto;-inkscape-font-specification:'Roboto Bold';text-align:end;text-anchor:end;fill:#4d4d4d;stroke-width:0.26458332px"
         id="path1485" />
    </g>
  </g>
</svg>
